HIERARCHY
ROOT pelvis
{
  OFFSET 0 100 0
  CHANNELS 6 Xposition Yposition Zposition Zrotation Xrotation Yrotation
  JOINT pelvis_right_femur
  {
    OFFSET -10.78128 -3.44521 -0.5502486
    CHANNELS 3 Zrotation Xrotation Yrotation
    JOINT right_femur_tibia
    {
      OFFSET -0.8047443 -44.0398 -0.1307829
      CHANNELS 3 Zrotation Xrotation Yrotation
      JOINT right_tibia_foot
      {
        OFFSET 3.006224 -47.83518 -5
        CHANNELS 3 Zrotation Xrotation Yrotation
        End Site
        {
          OFFSET 0 -5 15
        }
      }
    }
  }
  JOINT pelvis_left_femur
  {
    OFFSET 10.78128 -3.44521 -0.5502486
    CHANNELS 3 Zrotation Xrotation Yrotation
    JOINT left_femur_tibia
    {
      OFFSET 0.8047443 -44.0398 -0.1307829
      CHANNELS 3 Zrotation Xrotation Yrotation
      JOINT left_tibia_foot
      {
        OFFSET -4.370144 -48.10324 -4.275266
        CHANNELS 3 Zrotation Xrotation Yrotation
        End Site
        {
          OFFSET 0 -5 15
        }
      }
    }
  }
  JOINT pelvis_spine1
  {
    OFFSET 0 6.468898 -3.129235
    CHANNELS 3 Zrotation Xrotation Yrotation
    JOINT spine1
    {
      OFFSET 0 23.15396 4.99043
      CHANNELS 3 Zrotation Xrotation Yrotation
      JOINT spine2
      {
        OFFSET 0 20.79997 -5.064912
        CHANNELS 3 Zrotation Xrotation Yrotation
        JOINT neck
        {
          OFFSET 0 14.38658 9.616178
          CHANNELS 3 Zrotation Xrotation Yrotation
          End Site
          {
            OFFSET 0 20 0
          }
        }
      }
      JOINT right_manubrium
      {
        OFFSET -5.722621 16.35077 3.967754
        CHANNELS 3 Zrotation Xrotation Yrotation
        JOINT right_clavicle
        {
          OFFSET -13.16364 1.694482 -4.693211
          CHANNELS 3 Zrotation Xrotation Yrotation
          JOINT right_humerus
          {
            OFFSET -28.5034 -0.3100689 -2.792744
            CHANNELS 3 Zrotation Xrotation Yrotation
            JOINT right_radius
            {
              OFFSET -25.15693 0.02248979 -1.271978
              CHANNELS 3 Zrotation Xrotation Yrotation
              End Site
              {
                OFFSET -15 0 0
              }
            }
          }
        }
      }
      JOINT left_manubrium
      {
        OFFSET 5.722621 16.35077 3.967754
        CHANNELS 3 Zrotation Xrotation Yrotation
        JOINT left_clavicle
        {
          OFFSET 13.16364 1.694482 -4.693211
          CHANNELS 3 Zrotation Xrotation Yrotation
          JOINT left_humerus
          {
            OFFSET 29.39168 -1.063119 -2.237045
            CHANNELS 3 Zrotation Xrotation Yrotation
            JOINT left_radius
            {
              OFFSET 24.59957 -0.9528479 0.9047498
              CHANNELS 3 Zrotation Xrotation Yrotation
              End Site
              {
                OFFSET 15 -0 -0
              }
            }
          }
        }
      }
    }
  }
}
MOTION
Frames: 21
Frame Time: 0.0416666666667
-1066.331 99.01635 2445.292 -3.888948 -0.8801073 -68.42839 6.401861 -21.62821 -2.570253 -0 8.54427 -0 -10.06982 4.722019 -1.565156 -4.629068 13.14605 -6.905445 -0 40.32159 -0 2.078073 -10.88888 12.93788 -0.7160172 -1.215562 5.812741 -0.5871369 15.07994 -7.839269 -0.5944679 20.42061 5.726853 7.183189 -17.16671 1.265935 0.7346142 -21.40705 11.43058 92.18739 26.72807 -22.15036 -0 0 16.85141 -21.21885 7.71172 3.672354 8.234596 -29.25873 -10.42954 -86.34312 5.106853 16.21046 0 0 -22.49401 16.76556 9.287654 -10.66427
-1072.498 99.96689 2447.425 -4.989284 -0.7185916 -69.08821 7.48901 -17.12191 -0.9919447 -0 11.37219 -0 -10.95073 2.736696 -2.210631 -3.666417 9.231106 -6.557116 -0 49.50373 -0 1.381596 -7.36593 12.70529 -0.6423451 -1.210845 6.116565 -0.6019692 15.08206 -7.590321 -0.6190612 20.40419 5.769267 7.207145 -17.04241 1.272062 0.7860899 -21.83711 11.49085 91.73498 26.83189 -21.30187 -0 0 17.54123 -21.13128 7.696976 3.85443 7.851384 -29.01167 -10.42003 -87.10929 5.161058 17.83618 0 0 -20.61372 16.29717 9.253413 -9.861951
-1078.305 101.2179 2449.419 -5.951814 -0.9322788 -69.99272 7.699416 -11.99129 -0.1380447 -0 12.65974 -0 -11.74278 0.2863317 -2.50572 -2.824726 3.740777 -6.3139 -0 56.6474 -0 0.8555189 -4.749777 12.60992 -0.5681965 -1.235999 6.51616 -0.5902208 15.06846 -7.302662 -0.6706166 20.35063 5.819727 7.223745 -16.88646 1.262101 0.8546868 -22.43572 11.57379 91.13577 26.91568 -20.23462 -0 0 18.4997 -20.96225 7.671271 4.069204 7.360996 -28.71629 -10.4007 -88.08945 5.20023 19.95505 0 0 -18.29971 15.65922 9.175784 -8.79519
-1083.691 102.4666 2451.251 -6.497971 -1.442072 -70.96807 7.23979 -6.861835 0.09911281 -0 12.14212 -0 -12.1694 -1.995236 -2.37062 -2.120646 -2.608991 -5.957113 -0 60.02422 -0 0.6442122 -3.437013 12.75464 -0.5034186 -1.317955 6.963592 -0.5295721 15.04478 -7.019415 -0.7456423 20.26177 5.864029 7.212048 -16.7112 1.237414 0.9463569 -23.15234 11.6882 90.42128 26.87039 -19.0672 -0 0 19.63794 -20.72594 7.684323 4.321252 6.809331 -28.41212 -10.37394 -89.20799 5.238142 22.36674 0 0 -15.7937 14.90785 9.09845 -7.552828
-1088.729 103.4345 2452.942 -6.662528 -2.015008 -71.849 6.594077 -2.091309 0.06723746 -0 10.54228 -0 -12.14393 -3.850762 -1.968201 -1.306746 -8.901215 -5.293558 -0 58.71385 -0 0.7287655 -3.199952 13.23642 -0.4561692 -1.458886 7.414873 -0.4163284 15.00715 -6.763752 -0.8356668 20.14678 5.8964 7.163151 -16.52589 1.20734 1.06572 -23.92628 11.83215 89.63011 26.67419 -17.88475 -0 0 20.86223 -20.43928 7.765885 4.61117 6.239464 -28.11488 -10.33586 -90.38335 5.28518 24.87612 0 0 -13.30053 14.10191 9.048877 -6.22691
-1093.546 103.9131 2454.557 -6.650405 -2.374204 -72.55956 6.181079 2.219984 0.04599231 -0 8.83718 -0 -11.78812 -5.592696 -1.565259 -0.09906763 -14.42087 -4.294702 -0 52.79404 -0 1.002618 -3.432497 14.01912 -0.4374418 -1.637891 7.841873 -0.2660694 14.93271 -6.530069 -0.9330451 20.01897 5.927709 7.0849 -16.33588 1.188448 1.215344 -24.70682 11.9914 88.78546 26.4054 -16.70023 -0 0 22.10491 -20.11616 7.903051 4.940742 5.682312 -27.8091 -10.27172 -91.5497 5.343763 27.34845 0 0 -10.93452 13.28397 9.027586 -4.884749
-1098.261 103.7985 2456.194 -6.603665 -2.342607 -73.11345 6.128866 6.043543 0.1386777 -0 7.767485 -0 -11.25445 -7.71536 -1.31963 1.523949 -18.73442 -3.138252 -0 43.29405 -0 1.338698 -3.571154 14.8748 -0.4573069 -1.829398 8.229142 -0.1002173 14.79683 -6.302594 -1.033393 19.89085 5.97484 6.992858 -16.14675 1.194855 1.393046 -25.45796 12.14843 87.90153 26.16182 -15.49675 -0 0 23.32018 -19.77111 8.058172 5.310174 5.159359 -27.47411 -10.16715 -92.65977 5.411251 29.69823 0 0 -8.749581 12.48237 9.02162 -3.573124
-1102.984 103.1327 2457.971 -6.537395 -1.920256 -73.57755 6.285164 9.287719 0.3536159 -0 7.773701 -0 -10.57722 -10.34929 -1.226601 3.233191 -21.5726 -2.099151 -0 32.15034 -0 1.628819 -3.333408 15.4976 -0.5154766 -2.014976 8.562303 0.06263412 14.59877 -6.076307 -1.131318 19.77389 6.044426 6.899515 -15.96866 1.231542 1.588647 -26.14509 12.29065 87.01027 25.98753 -14.294 -0 0 24.45442 -19.43225 8.203974 5.712277 4.692294 -27.111 -10.02228 -93.67039 5.486954 31.8351 0 0 -6.800041 11.73099 9.026283 -2.347686
-1107.825 102.1092 2459.991 -6.420381 -1.271199 -74.04058 6.370203 11.83962 0.6442322 -0 8.98576 -0 -9.745927 -13.06668 -1.188286 4.513754 -22.83039 -1.422598 -0 21.82338 -0 1.806281 -2.750043 15.72597 -0.5955588 -2.181505 8.820692 0.2033386 14.37188 -5.859049 -1.21502 19.68284 6.127537 6.811659 -15.81791 1.296658 1.783213 -26.72259 12.4114 86.17478 25.86377 -13.1672 -0 0 25.42683 -19.156 8.341649 6.136872 4.309078 -26.74488 -9.855296 -94.53385 5.576732 33.63203 0 0 -5.157095 11.08474 9.058359 -1.294297
-1112.895 101.0027 2462.309 -6.251504 -0.6480789 -74.58432 6.13731 13.73472 0.8628949 -0 11.17506 -0 -8.915032 -15.13848 -1.09117 4.935812 -22.69681 -1.301053 -0 14.35184 -0 1.81311 -2.100981 15.70465 -0.6712888 -2.313911 8.981896 0.2967902 14.16672 -5.658304 -1.267946 19.63678 6.209551 6.735819 -15.71374 1.387653 1.953056 -27.13976 12.50523 85.47164 25.75541 -12.2055 -0 0 26.14517 -19.02071 8.485052 6.579179 4.039688 -26.40565 -9.69245 -95.20522 5.688677 34.95182 0 0 -3.875877 10.61085 9.147007 -0.5147184
-1118.278 100.0534 2464.899 -6.074863 -0.2925062 -75.24943 5.455818 15.2773 0.7968433 -0 13.87664 -0 -8.467003 -15.95435 -0.8612104 4.344755 -21.67351 -1.919716 -0 10.42228 -0 1.544578 -1.773429 15.82799 -0.7225128 -2.39326 9.034163 0.3177527 14.01822 -5.472547 -1.278076 19.65209 6.284272 6.683534 -15.66987 1.503035 2.077447 -27.35984 12.56341 84.95873 25.6651 -11.46157 -0 0 26.54228 -19.08533 8.62678 7.032128 3.903864 -26.11065 -9.553159 -95.65346 5.823523 35.70421 0 0 -2.9713 10.35878 9.306156 -0.08248416
-1124.002 99.39234 2467.663 -5.967335 -0.3654278 -76.00842 4.301694 16.91873 0.3430691 -0 16.75538 -0 -8.79008 -15.18572 -0.4649565 2.848653 -20.31658 -3.452073 -0 9.361767 -0 0.9014979 -2.071227 16.47195 -0.7463896 -2.402895 8.98464 0.2557455 13.92707 -5.298241 -1.24579 19.73265 6.356711 6.668928 -15.68553 1.637748 2.145503 -27.37319 12.5756 84.65889 25.64486 -10.94572 -0 0 26.59975 -19.34323 8.725736 7.464429 3.901005 -25.86605 -9.443839 -95.86361 5.970095 35.87872 0 0 -2.436024 10.33533 9.514684 -0.007706297
-1130.028 99.05723 2470.473 -6.025144 -0.9271534 -76.75979 2.73077 18.8834 -0.3548934 -0 19.97129 -0 -9.988647 -12.61323 0.1277835 0.6905746 -18.8791 -5.92654 -0 10.03582 -0 -0.03896441 -3.079397 17.72345 -0.7537908 -2.335893 8.856246 0.1224583 13.87085 -5.141893 -1.182895 19.86615 6.43364 6.701509 -15.74461 1.778479 2.157501 -27.1957 12.5357 84.56893 25.76254 -10.65679 -0 0 26.34507 -19.7185 8.731023 7.812796 4.011687 -25.67963 -9.363732 -95.83197 6.107234 35.53038 0 0 -2.272067 10.50828 9.723193 -0.2439461
-1136.259 99.06623 2473.23 -6.330244 -1.910335 -77.34614 0.9114608 20.78746 -0.9727769 -0 24.22226 -0 -11.80762 -8.063524 0.9421137 -1.78478 -17.18768 -9.023129 -0 11.62068 -0 -0.9314839 -4.618203 19.30192 -0.7570538 -2.197537 8.676613 -0.0554132 13.8297 -5.023807 -1.105199 20.02864 6.513748 6.781463 -15.82511 1.9047 2.120074 -26.85811 12.4457 84.68069 26.0594 -10.61102 -0 0 25.83144 -20.1081 8.615362 8.001102 4.209631 -25.56945 -9.314048 -95.55987 6.208296 34.73783 0 0 -2.505458 10.8325 9.877764 -0.727075
-1142.542 99.47153 2475.873 -6.88649 -3.062445 -77.60352 -0.7999719 21.57051 -1.260091 -0 30.29462 -0 -13.79304 -1.807455 1.921421 -4.076865 -14.85302 -12.01392 -0 13.62418 -0 -1.321428 -6.287684 20.70513 -0.7608411 -2.004242 8.468305 -0.2471787 13.80365 -4.974222 -1.025919 20.19141 6.584186 6.898681 -15.9111 1.993373 2.039928 -26.39687 12.31563 84.99647 26.52337 -10.85147 -0 0 25.11812 -20.42714 8.391052 7.967553 4.472923 -25.56405 -9.302615 -95.05177 6.247092 33.57124 0 0 -3.182744 11.27165 9.939583 -1.406241
-1148.677 100.3258 2478.361 -7.583798 -3.968305 -77.4425 -1.890083 19.96746 -1.27283 -0 38.16095 -0 -15.51507 4.944746 2.842801 -5.636551 -11.63363 -14.07315 -0 15.50856 -0 -0.9737306 -7.679225 21.4974 -0.7608699 -1.782247 8.245458 -0.4239693 13.81343 -5.026011 -0.9536667 20.32611 6.623227 7.033808 -15.99907 2.023644 1.920975 -25.85243 12.16201 85.52781 27.07982 -11.4358 -0 0 24.26394 -20.63005 8.105301 7.68427 4.787059 -25.69535 -9.342272 -94.32213 6.204847 32.09065 0 0 -4.350285 11.80036 9.892729 -2.246039
-1154.458 101.5652 2480.657 -8.261517 -4.272724 -76.91487 -2.013259 15.39992 -1.268371 -0 46.20544 -0 -16.68223 10.29835 3.379611 -6.187803 -7.665978 -14.82704 -0 16.57398 -0 -0.06273414 -8.679943 21.55421 -0.7492405 -1.563884 8.01454 -0.5624502 13.88656 -5.202696 -0.8932137 20.41065 6.608922 7.162638 -16.09642 1.982521 1.765949 -25.26844 12.00442 86.27593 27.60717 -12.40016 -0 0 23.32815 -20.71351 7.820087 7.169344 5.142549 -25.98376 -9.443302 -93.40601 6.077242 30.36035 0 0 -6.017093 12.39482 9.745296 -3.212793
-1159.756 102.9347 2482.745 -8.806263 -3.965828 -76.1939 -1.343133 8.54582 -1.411294 -0 51.67099 -0 -17.16858 12.85864 3.349365 -5.916589 -3.392612 -14.57097 -0 16.33149 -0 0.9737512 -9.559708 21.04339 -0.7224223 -1.378409 7.775611 -0.6501235 14.03657 -5.505139 -0.8460846 20.43682 6.530773 7.264221 -16.21363 1.871506 1.580344 -24.68329 11.85931 87.20848 27.98489 -13.71745 -0 0 22.36538 -20.70866 7.585288 6.486248 5.532598 -26.42136 -9.603366 -92.35909 5.878037 28.45121 0 0 -8.126068 13.02761 9.526681 -4.267436
-1164.587 104.0746 2484.648 -9.140855 -3.381957 -75.47193 -0.4182133 0.8939645 -1.787655 -0 52.3949 -0 -17.00443 12.63886 2.882241 -5.295556 0.7108652 -13.895 -0 14.89343 -0 1.734695 -10.72514 20.17986 -0.686192 -1.242094 7.523928 -0.6885204 14.24988 -5.907575 -0.8107434 20.41336 6.396589 7.327941 -16.35575 1.709081 1.375142 -24.11897 11.73443 88.25495 28.15026 -15.28641 -0 0 21.41485 -20.66276 7.421457 5.724635 5.95239 -26.96714 -9.802809 -91.24237 5.634779 26.42699 0 0 -10.56291 13.67226 9.278337 -5.371155
-1169.096 104.6944 2486.408 -9.159235 -2.88888 -74.86801 0.285727 -6.24891 -2.521311 -0 48.1204 -0 -16.29002 10.71824 2.27204 -4.770113 4.34962 -13.2121 -0 12.8726 -0 2.050209 -12.39776 19.0876 -0.6538578 -1.155974 7.253404 -0.6900135 14.48984 -6.365982 -0.7836077 20.36047 6.229626 7.354421 -16.51958 1.525777 1.166601 -23.58032 11.62887 89.324 28.11791 -16.95996 -0 0 20.49751 -20.61915 7.323227 4.975396 6.397203 -27.55872 -10.0099 -90.10879 5.379803 24.3402 0 0 -13.18667 14.30888 9.041496 -6.490078
-1173.481 104.6748 2488.072 -8.756646 -2.642899 -74.40738 0.5781267 -12.28011 -3.657243 -0 40.23406 -0 -15.14292 8.332575 1.739239 -4.578096 7.431436 -12.63176 -0 10.98383 -0 2.019761 -14.4776 17.87021 -0.6395818 -1.111625 6.961362 -0.6706551 14.71262 -6.830386 -0.7605382 20.30122 6.05938 7.351236 -16.6955 1.35509 0.9740043 -23.0653 11.5384 90.32483 27.95231 -18.58463 -0 0 19.62422 -20.60711 7.275718 4.315782 6.857783 -28.12981 -10.19201 -89.00536 5.144302 22.2483 0 0 -15.84486 14.92284 8.850576 -7.590155
